<mxfile host="app.diagrams.net" agent="Mozilla/5.0 (Windows NT 10.0; Win64; x64) AppleWebKit/537.36 (KHTML, like Gecko) Chrome/128.0.0.0 Safari/537.36" version="24.7.17">
  <diagram id="R2lEEEUBdFMjLlhIrx00" name="Page-1">
    <mxGraphModel dx="1424" dy="3133" grid="1" gridSize="10" guides="1" tooltips="1" connect="1" arrows="1" fold="1" page="1" pageScale="1" pageWidth="850" pageHeight="1100" background="none" math="0" shadow="0" extFonts="Permanent Marker^https://fonts.googleapis.com/css?family=Permanent+Marker">
      <root>
        <mxCell id="0" />
        <mxCell id="1" parent="0" />
        <mxCell id="Fybl_m38d4EneD0_LPpg-108" value="Formulario" style="swimlane;fontStyle=1;align=center;verticalAlign=top;childLayout=stackLayout;horizontal=1;startSize=26;horizontalStack=0;resizeParent=1;resizeParentMax=0;resizeLast=0;collapsible=1;marginBottom=0;whiteSpace=wrap;html=1;rounded=0;" parent="1" vertex="1">
          <mxGeometry x="610" y="-1313" width="160" height="190" as="geometry">
            <mxRectangle x="340" y="-1209" width="100" height="30" as="alternateBounds" />
          </mxGeometry>
        </mxCell>
        <mxCell id="Fybl_m38d4EneD0_LPpg-109" value="id&lt;div&gt;&lt;br&gt;&lt;/div&gt;" style="text;strokeColor=none;fillColor=none;align=left;verticalAlign=top;spacingLeft=4;spacingRight=4;overflow=hidden;rotatable=0;points=[[0,0.5],[1,0.5]];portConstraint=eastwest;whiteSpace=wrap;html=1;rounded=0;" parent="Fybl_m38d4EneD0_LPpg-108" vertex="1">
          <mxGeometry y="26" width="160" height="26" as="geometry" />
        </mxCell>
        <mxCell id="Fybl_m38d4EneD0_LPpg-110" value="" style="line;strokeWidth=1;fillColor=none;align=left;verticalAlign=middle;spacingTop=-1;spacingLeft=3;spacingRight=3;rotatable=0;labelPosition=right;points=[];portConstraint=eastwest;strokeColor=inherit;rounded=0;" parent="Fybl_m38d4EneD0_LPpg-108" vertex="1">
          <mxGeometry y="52" width="160" height="8" as="geometry" />
        </mxCell>
        <mxCell id="Fybl_m38d4EneD0_LPpg-111" value="nome" style="text;strokeColor=none;fillColor=none;align=left;verticalAlign=top;spacingLeft=4;spacingRight=4;overflow=hidden;rotatable=0;points=[[0,0.5],[1,0.5]];portConstraint=eastwest;whiteSpace=wrap;html=1;rounded=0;" parent="Fybl_m38d4EneD0_LPpg-108" vertex="1">
          <mxGeometry y="60" width="160" height="26" as="geometry" />
        </mxCell>
        <mxCell id="Fybl_m38d4EneD0_LPpg-112" value="sobre" style="text;strokeColor=none;fillColor=none;align=left;verticalAlign=top;spacingLeft=4;spacingRight=4;overflow=hidden;rotatable=0;points=[[0,0.5],[1,0.5]];portConstraint=eastwest;whiteSpace=wrap;html=1;rounded=0;" parent="Fybl_m38d4EneD0_LPpg-108" vertex="1">
          <mxGeometry y="86" width="160" height="26" as="geometry" />
        </mxCell>
        <mxCell id="Fybl_m38d4EneD0_LPpg-114" value="ativo" style="text;strokeColor=none;fillColor=none;align=left;verticalAlign=top;spacingLeft=4;spacingRight=4;overflow=hidden;rotatable=0;points=[[0,0.5],[1,0.5]];portConstraint=eastwest;whiteSpace=wrap;html=1;rounded=0;" parent="Fybl_m38d4EneD0_LPpg-108" vertex="1">
          <mxGeometry y="112" width="160" height="26" as="geometry" />
        </mxCell>
        <mxCell id="Fybl_m38d4EneD0_LPpg-117" value="publico" style="text;strokeColor=none;fillColor=none;align=left;verticalAlign=top;spacingLeft=4;spacingRight=4;overflow=hidden;rotatable=0;points=[[0,0.5],[1,0.5]];portConstraint=eastwest;whiteSpace=wrap;html=1;rounded=0;" parent="Fybl_m38d4EneD0_LPpg-108" vertex="1">
          <mxGeometry y="138" width="160" height="26" as="geometry" />
        </mxCell>
        <mxCell id="Fybl_m38d4EneD0_LPpg-116" value="criadoEm" style="text;strokeColor=none;fillColor=none;align=left;verticalAlign=top;spacingLeft=4;spacingRight=4;overflow=hidden;rotatable=0;points=[[0,0.5],[1,0.5]];portConstraint=eastwest;whiteSpace=wrap;html=1;rounded=0;" parent="Fybl_m38d4EneD0_LPpg-108" vertex="1">
          <mxGeometry y="164" width="160" height="26" as="geometry" />
        </mxCell>
        <mxCell id="Fybl_m38d4EneD0_LPpg-119" value="Usuario" style="swimlane;fontStyle=1;align=center;verticalAlign=top;childLayout=stackLayout;horizontal=1;startSize=26;horizontalStack=0;resizeParent=1;resizeParentMax=0;resizeLast=0;collapsible=1;marginBottom=0;whiteSpace=wrap;html=1;rounded=0;" parent="1" vertex="1">
          <mxGeometry x="200" y="-1359" width="160" height="138" as="geometry">
            <mxRectangle x="90" y="-1209" width="80" height="30" as="alternateBounds" />
          </mxGeometry>
        </mxCell>
        <mxCell id="Fybl_m38d4EneD0_LPpg-120" value="id&lt;div&gt;&lt;br&gt;&lt;/div&gt;" style="text;strokeColor=none;fillColor=none;align=left;verticalAlign=top;spacingLeft=4;spacingRight=4;overflow=hidden;rotatable=0;points=[[0,0.5],[1,0.5]];portConstraint=eastwest;whiteSpace=wrap;html=1;rounded=0;" parent="Fybl_m38d4EneD0_LPpg-119" vertex="1">
          <mxGeometry y="26" width="160" height="26" as="geometry" />
        </mxCell>
        <mxCell id="Fybl_m38d4EneD0_LPpg-121" value="" style="line;strokeWidth=1;fillColor=none;align=left;verticalAlign=middle;spacingTop=-1;spacingLeft=3;spacingRight=3;rotatable=0;labelPosition=right;points=[];portConstraint=eastwest;strokeColor=inherit;rounded=0;" parent="Fybl_m38d4EneD0_LPpg-119" vertex="1">
          <mxGeometry y="52" width="160" height="8" as="geometry" />
        </mxCell>
        <mxCell id="Fybl_m38d4EneD0_LPpg-122" value="nome" style="text;strokeColor=none;fillColor=none;align=left;verticalAlign=top;spacingLeft=4;spacingRight=4;overflow=hidden;rotatable=0;points=[[0,0.5],[1,0.5]];portConstraint=eastwest;whiteSpace=wrap;html=1;rounded=0;" parent="Fybl_m38d4EneD0_LPpg-119" vertex="1">
          <mxGeometry y="60" width="160" height="26" as="geometry" />
        </mxCell>
        <mxCell id="Fybl_m38d4EneD0_LPpg-123" value="email" style="text;strokeColor=none;fillColor=none;align=left;verticalAlign=top;spacingLeft=4;spacingRight=4;overflow=hidden;rotatable=0;points=[[0,0.5],[1,0.5]];portConstraint=eastwest;whiteSpace=wrap;html=1;rounded=0;" parent="Fybl_m38d4EneD0_LPpg-119" vertex="1">
          <mxGeometry y="86" width="160" height="26" as="geometry" />
        </mxCell>
        <mxCell id="Fybl_m38d4EneD0_LPpg-124" value="senha" style="text;strokeColor=none;fillColor=none;align=left;verticalAlign=top;spacingLeft=4;spacingRight=4;overflow=hidden;rotatable=0;points=[[0,0.5],[1,0.5]];portConstraint=eastwest;whiteSpace=wrap;html=1;rounded=0;" parent="Fybl_m38d4EneD0_LPpg-119" vertex="1">
          <mxGeometry y="112" width="160" height="26" as="geometry" />
        </mxCell>
        <mxCell id="Fybl_m38d4EneD0_LPpg-135" value="Questão" style="swimlane;fontStyle=1;align=center;verticalAlign=top;childLayout=stackLayout;horizontal=1;startSize=26;horizontalStack=0;resizeParent=1;resizeParentMax=0;resizeLast=0;collapsible=1;marginBottom=0;whiteSpace=wrap;html=1;rounded=0;" parent="1" vertex="1">
          <mxGeometry x="1010" y="-1227" width="160" height="138" as="geometry">
            <mxRectangle x="520" y="-360" width="90" height="30" as="alternateBounds" />
          </mxGeometry>
        </mxCell>
        <mxCell id="Fybl_m38d4EneD0_LPpg-136" value="id&lt;div&gt;&lt;br&gt;&lt;/div&gt;" style="text;strokeColor=none;fillColor=none;align=left;verticalAlign=top;spacingLeft=4;spacingRight=4;overflow=hidden;rotatable=0;points=[[0,0.5],[1,0.5]];portConstraint=eastwest;whiteSpace=wrap;html=1;rounded=0;" parent="Fybl_m38d4EneD0_LPpg-135" vertex="1">
          <mxGeometry y="26" width="160" height="26" as="geometry" />
        </mxCell>
        <mxCell id="Fybl_m38d4EneD0_LPpg-137" value="" style="line;strokeWidth=1;fillColor=none;align=left;verticalAlign=middle;spacingTop=-1;spacingLeft=3;spacingRight=3;rotatable=0;labelPosition=right;points=[];portConstraint=eastwest;strokeColor=inherit;rounded=0;" parent="Fybl_m38d4EneD0_LPpg-135" vertex="1">
          <mxGeometry y="52" width="160" height="8" as="geometry" />
        </mxCell>
        <mxCell id="Fybl_m38d4EneD0_LPpg-138" value="texto" style="text;strokeColor=none;fillColor=none;align=left;verticalAlign=top;spacingLeft=4;spacingRight=4;overflow=hidden;rotatable=0;points=[[0,0.5],[1,0.5]];portConstraint=eastwest;whiteSpace=wrap;html=1;rounded=0;" parent="Fybl_m38d4EneD0_LPpg-135" vertex="1">
          <mxGeometry y="60" width="160" height="26" as="geometry" />
        </mxCell>
        <mxCell id="Fybl_m38d4EneD0_LPpg-140" value="tipo" style="text;strokeColor=none;fillColor=none;align=left;verticalAlign=top;spacingLeft=4;spacingRight=4;overflow=hidden;rotatable=0;points=[[0,0.5],[1,0.5]];portConstraint=eastwest;whiteSpace=wrap;html=1;rounded=0;" parent="Fybl_m38d4EneD0_LPpg-135" vertex="1">
          <mxGeometry y="86" width="160" height="26" as="geometry" />
        </mxCell>
        <mxCell id="GQpUR5S-1D9-paGbvoM8-36" value="&lt;div&gt;index&lt;/div&gt;" style="text;strokeColor=none;fillColor=none;align=left;verticalAlign=top;spacingLeft=4;spacingRight=4;overflow=hidden;rotatable=0;points=[[0,0.5],[1,0.5]];portConstraint=eastwest;whiteSpace=wrap;html=1;rounded=0;" parent="Fybl_m38d4EneD0_LPpg-135" vertex="1">
          <mxGeometry y="112" width="160" height="26" as="geometry" />
        </mxCell>
        <mxCell id="Fybl_m38d4EneD0_LPpg-146" value="Opção" style="swimlane;fontStyle=1;align=center;verticalAlign=top;childLayout=stackLayout;horizontal=1;startSize=26;horizontalStack=0;resizeParent=1;resizeParentMax=0;resizeLast=0;collapsible=1;marginBottom=0;whiteSpace=wrap;html=1;rounded=0;" parent="1" vertex="1">
          <mxGeometry x="1010" y="-1040" width="160" height="112" as="geometry">
            <mxRectangle x="520" y="-360" width="90" height="30" as="alternateBounds" />
          </mxGeometry>
        </mxCell>
        <mxCell id="Fybl_m38d4EneD0_LPpg-147" value="id&lt;div&gt;&lt;br&gt;&lt;/div&gt;" style="text;strokeColor=none;fillColor=none;align=left;verticalAlign=top;spacingLeft=4;spacingRight=4;overflow=hidden;rotatable=0;points=[[0,0.5],[1,0.5]];portConstraint=eastwest;whiteSpace=wrap;html=1;rounded=0;" parent="Fybl_m38d4EneD0_LPpg-146" vertex="1">
          <mxGeometry y="26" width="160" height="26" as="geometry" />
        </mxCell>
        <mxCell id="Fybl_m38d4EneD0_LPpg-148" value="" style="line;strokeWidth=1;fillColor=none;align=left;verticalAlign=middle;spacingTop=-1;spacingLeft=3;spacingRight=3;rotatable=0;labelPosition=right;points=[];portConstraint=eastwest;strokeColor=inherit;rounded=0;" parent="Fybl_m38d4EneD0_LPpg-146" vertex="1">
          <mxGeometry y="52" width="160" height="8" as="geometry" />
        </mxCell>
        <mxCell id="Fybl_m38d4EneD0_LPpg-149" value="texto" style="text;strokeColor=none;fillColor=none;align=left;verticalAlign=top;spacingLeft=4;spacingRight=4;overflow=hidden;rotatable=0;points=[[0,0.5],[1,0.5]];portConstraint=eastwest;whiteSpace=wrap;html=1;rounded=0;" parent="Fybl_m38d4EneD0_LPpg-146" vertex="1">
          <mxGeometry y="60" width="160" height="26" as="geometry" />
        </mxCell>
        <mxCell id="Fybl_m38d4EneD0_LPpg-152" value="&lt;div&gt;index&lt;/div&gt;" style="text;strokeColor=none;fillColor=none;align=left;verticalAlign=top;spacingLeft=4;spacingRight=4;overflow=hidden;rotatable=0;points=[[0,0.5],[1,0.5]];portConstraint=eastwest;whiteSpace=wrap;html=1;rounded=0;" parent="Fybl_m38d4EneD0_LPpg-146" vertex="1">
          <mxGeometry y="86" width="160" height="26" as="geometry" />
        </mxCell>
        <mxCell id="Fybl_m38d4EneD0_LPpg-159" value="Tipo de questão" style="swimlane;fontStyle=1;align=center;verticalAlign=top;childLayout=stackLayout;horizontal=1;startSize=26;horizontalStack=0;resizeParent=1;resizeParentMax=0;resizeLast=0;collapsible=1;marginBottom=0;whiteSpace=wrap;html=1;rounded=0;" parent="1" vertex="1">
          <mxGeometry x="1010" y="-1380" width="160" height="86" as="geometry">
            <mxRectangle x="520" y="-360" width="90" height="30" as="alternateBounds" />
          </mxGeometry>
        </mxCell>
        <mxCell id="Fybl_m38d4EneD0_LPpg-160" value="id&lt;div&gt;&lt;br&gt;&lt;/div&gt;" style="text;strokeColor=none;fillColor=none;align=left;verticalAlign=top;spacingLeft=4;spacingRight=4;overflow=hidden;rotatable=0;points=[[0,0.5],[1,0.5]];portConstraint=eastwest;whiteSpace=wrap;html=1;rounded=0;" parent="Fybl_m38d4EneD0_LPpg-159" vertex="1">
          <mxGeometry y="26" width="160" height="26" as="geometry" />
        </mxCell>
        <mxCell id="Fybl_m38d4EneD0_LPpg-161" value="" style="line;strokeWidth=1;fillColor=none;align=left;verticalAlign=middle;spacingTop=-1;spacingLeft=3;spacingRight=3;rotatable=0;labelPosition=right;points=[];portConstraint=eastwest;strokeColor=inherit;rounded=0;" parent="Fybl_m38d4EneD0_LPpg-159" vertex="1">
          <mxGeometry y="52" width="160" height="8" as="geometry" />
        </mxCell>
        <mxCell id="Fybl_m38d4EneD0_LPpg-162" value="nome" style="text;strokeColor=none;fillColor=none;align=left;verticalAlign=top;spacingLeft=4;spacingRight=4;overflow=hidden;rotatable=0;points=[[0,0.5],[1,0.5]];portConstraint=eastwest;whiteSpace=wrap;html=1;rounded=0;" parent="Fybl_m38d4EneD0_LPpg-159" vertex="1">
          <mxGeometry y="60" width="160" height="26" as="geometry" />
        </mxCell>
        <mxCell id="Fybl_m38d4EneD0_LPpg-166" value="Sessao" style="swimlane;fontStyle=1;align=center;verticalAlign=top;childLayout=stackLayout;horizontal=1;startSize=26;horizontalStack=0;resizeParent=1;resizeParentMax=0;resizeLast=0;collapsible=1;marginBottom=0;whiteSpace=wrap;html=1;rounded=0;" parent="1" vertex="1">
          <mxGeometry x="200" y="-1196" width="160" height="86" as="geometry" />
        </mxCell>
        <mxCell id="Fybl_m38d4EneD0_LPpg-167" value="id&lt;div&gt;&lt;br&gt;&lt;/div&gt;" style="text;strokeColor=none;fillColor=none;align=left;verticalAlign=top;spacingLeft=4;spacingRight=4;overflow=hidden;rotatable=0;points=[[0,0.5],[1,0.5]];portConstraint=eastwest;whiteSpace=wrap;html=1;rounded=0;" parent="Fybl_m38d4EneD0_LPpg-166" vertex="1">
          <mxGeometry y="26" width="160" height="26" as="geometry" />
        </mxCell>
        <mxCell id="Fybl_m38d4EneD0_LPpg-168" value="" style="line;strokeWidth=1;fillColor=none;align=left;verticalAlign=middle;spacingTop=-1;spacingLeft=3;spacingRight=3;rotatable=0;labelPosition=right;points=[];portConstraint=eastwest;strokeColor=inherit;rounded=0;" parent="Fybl_m38d4EneD0_LPpg-166" vertex="1">
          <mxGeometry y="52" width="160" height="8" as="geometry" />
        </mxCell>
        <mxCell id="GQpUR5S-1D9-paGbvoM8-39" value="criadoEm" style="text;strokeColor=none;fillColor=none;align=left;verticalAlign=top;spacingLeft=4;spacingRight=4;overflow=hidden;rotatable=0;points=[[0,0.5],[1,0.5]];portConstraint=eastwest;whiteSpace=wrap;html=1;rounded=0;" parent="Fybl_m38d4EneD0_LPpg-166" vertex="1">
          <mxGeometry y="60" width="160" height="26" as="geometry" />
        </mxCell>
        <mxCell id="Fybl_m38d4EneD0_LPpg-177" value="Resposta" style="swimlane;fontStyle=1;align=center;verticalAlign=top;childLayout=stackLayout;horizontal=1;startSize=26;horizontalStack=0;resizeParent=1;resizeParentMax=0;resizeLast=0;collapsible=1;marginBottom=0;whiteSpace=wrap;html=1;rounded=0;" parent="1" vertex="1">
          <mxGeometry x="200" y="-1050" width="160" height="86" as="geometry" />
        </mxCell>
        <mxCell id="Fybl_m38d4EneD0_LPpg-178" value="id&lt;div&gt;&lt;br&gt;&lt;/div&gt;" style="text;strokeColor=none;fillColor=none;align=left;verticalAlign=top;spacingLeft=4;spacingRight=4;overflow=hidden;rotatable=0;points=[[0,0.5],[1,0.5]];portConstraint=eastwest;whiteSpace=wrap;html=1;rounded=0;" parent="Fybl_m38d4EneD0_LPpg-177" vertex="1">
          <mxGeometry y="26" width="160" height="26" as="geometry" />
        </mxCell>
        <mxCell id="Fybl_m38d4EneD0_LPpg-179" value="" style="line;strokeWidth=1;fillColor=none;align=left;verticalAlign=middle;spacingTop=-1;spacingLeft=3;spacingRight=3;rotatable=0;labelPosition=right;points=[];portConstraint=eastwest;strokeColor=inherit;rounded=0;" parent="Fybl_m38d4EneD0_LPpg-177" vertex="1">
          <mxGeometry y="52" width="160" height="8" as="geometry" />
        </mxCell>
        <mxCell id="Fybl_m38d4EneD0_LPpg-180" value="valor" style="text;strokeColor=none;fillColor=none;align=left;verticalAlign=top;spacingLeft=4;spacingRight=4;overflow=hidden;rotatable=0;points=[[0,0.5],[1,0.5]];portConstraint=eastwest;whiteSpace=wrap;html=1;rounded=0;" parent="Fybl_m38d4EneD0_LPpg-177" vertex="1">
          <mxGeometry y="60" width="160" height="26" as="geometry" />
        </mxCell>
        <mxCell id="Fybl_m38d4EneD0_LPpg-185" value="" style="edgeStyle=entityRelationEdgeStyle;fontSize=12;html=1;endArrow=none;endFill=0;rounded=0;" parent="1" source="GQpUR5S-1D9-paGbvoM8-49" target="Fybl_m38d4EneD0_LPpg-108" edge="1">
          <mxGeometry width="100" height="100" relative="1" as="geometry">
            <mxPoint x="70" y="-730" as="sourcePoint" />
            <mxPoint x="170" y="-830" as="targetPoint" />
          </mxGeometry>
        </mxCell>
        <mxCell id="GQpUR5S-1D9-paGbvoM8-28" value="1,n" style="edgeLabel;html=1;align=center;verticalAlign=middle;resizable=0;points=[];" parent="Fybl_m38d4EneD0_LPpg-185" vertex="1" connectable="0">
          <mxGeometry x="0.6907" relative="1" as="geometry">
            <mxPoint x="2" as="offset" />
          </mxGeometry>
        </mxCell>
        <mxCell id="Fybl_m38d4EneD0_LPpg-188" value="" style="edgeStyle=entityRelationEdgeStyle;fontSize=12;html=1;endArrow=none;endFill=0;rounded=0;" parent="1" source="GQpUR5S-1D9-paGbvoM8-76" target="Fybl_m38d4EneD0_LPpg-152" edge="1">
          <mxGeometry width="100" height="100" relative="1" as="geometry">
            <mxPoint x="1079.5299999999997" y="-939" as="sourcePoint" />
            <mxPoint x="580" y="-804" as="targetPoint" />
            <Array as="points">
              <mxPoint x="890" y="-900" />
              <mxPoint x="890" y="-900" />
            </Array>
          </mxGeometry>
        </mxCell>
        <mxCell id="GQpUR5S-1D9-paGbvoM8-17" value="1,n" style="edgeLabel;html=1;align=center;verticalAlign=middle;resizable=0;points=[];" parent="Fybl_m38d4EneD0_LPpg-188" vertex="1" connectable="0">
          <mxGeometry x="0.8778" relative="1" as="geometry">
            <mxPoint as="offset" />
          </mxGeometry>
        </mxCell>
        <mxCell id="Fybl_m38d4EneD0_LPpg-189" value="" style="edgeStyle=entityRelationEdgeStyle;fontSize=12;html=1;endArrow=none;startArrow=none;rounded=0;endFill=0;startFill=0;" parent="1" source="GQpUR5S-1D9-paGbvoM8-75" target="Fybl_m38d4EneD0_LPpg-159" edge="1">
          <mxGeometry width="100" height="100" relative="1" as="geometry">
            <mxPoint x="690" y="-700" as="sourcePoint" />
            <mxPoint x="790" y="-800" as="targetPoint" />
            <Array as="points" />
          </mxGeometry>
        </mxCell>
        <mxCell id="GQpUR5S-1D9-paGbvoM8-18" value="1,1" style="edgeLabel;html=1;align=center;verticalAlign=middle;resizable=0;points=[];" parent="Fybl_m38d4EneD0_LPpg-189" vertex="1" connectable="0">
          <mxGeometry x="0.8264" y="-2" relative="1" as="geometry">
            <mxPoint as="offset" />
          </mxGeometry>
        </mxCell>
        <mxCell id="Fybl_m38d4EneD0_LPpg-191" value="" style="edgeStyle=entityRelationEdgeStyle;fontSize=12;html=1;endArrow=none;endFill=0;rounded=0;" parent="1" source="GQpUR5S-1D9-paGbvoM8-53" target="Fybl_m38d4EneD0_LPpg-167" edge="1">
          <mxGeometry width="100" height="100" relative="1" as="geometry">
            <mxPoint x="690" y="-890" as="sourcePoint" />
            <mxPoint x="790" y="-990" as="targetPoint" />
            <Array as="points" />
          </mxGeometry>
        </mxCell>
        <mxCell id="GQpUR5S-1D9-paGbvoM8-26" value="1,n" style="edgeLabel;html=1;align=center;verticalAlign=middle;resizable=0;points=[];" parent="Fybl_m38d4EneD0_LPpg-191" vertex="1" connectable="0">
          <mxGeometry x="0.8604" y="1" relative="1" as="geometry">
            <mxPoint x="7" as="offset" />
          </mxGeometry>
        </mxCell>
        <mxCell id="Fybl_m38d4EneD0_LPpg-193" value="" style="edgeStyle=entityRelationEdgeStyle;fontSize=12;html=1;endArrow=none;rounded=0;endFill=0;exitX=0.5;exitY=1;exitDx=0;exitDy=0;entryX=1.006;entryY=0.153;entryDx=0;entryDy=0;entryPerimeter=0;" parent="1" source="GQpUR5S-1D9-paGbvoM8-57" target="Fybl_m38d4EneD0_LPpg-177" edge="1">
          <mxGeometry width="100" height="100" relative="1" as="geometry">
            <mxPoint x="730" y="-930" as="sourcePoint" />
            <mxPoint x="250" y="-771" as="targetPoint" />
            <Array as="points">
              <mxPoint x="280" y="-750" />
            </Array>
          </mxGeometry>
        </mxCell>
        <mxCell id="GQpUR5S-1D9-paGbvoM8-23" value="1,n" style="edgeLabel;html=1;align=center;verticalAlign=middle;resizable=0;points=[];" parent="Fybl_m38d4EneD0_LPpg-193" vertex="1" connectable="0">
          <mxGeometry x="0.8644" y="-1" relative="1" as="geometry">
            <mxPoint as="offset" />
          </mxGeometry>
        </mxCell>
        <mxCell id="Fybl_m38d4EneD0_LPpg-237" value="" style="edgeStyle=entityRelationEdgeStyle;fontSize=12;html=1;endArrow=none;endFill=0;rounded=0;entryX=-0.018;entryY=0.54;entryDx=0;entryDy=0;entryPerimeter=0;" parent="1" source="GQpUR5S-1D9-paGbvoM8-61" target="Fybl_m38d4EneD0_LPpg-138" edge="1">
          <mxGeometry width="100" height="100" relative="1" as="geometry">
            <mxPoint x="290" y="-680" as="sourcePoint" />
            <mxPoint x="390" y="-780" as="targetPoint" />
          </mxGeometry>
        </mxCell>
        <mxCell id="GQpUR5S-1D9-paGbvoM8-11" value="0,1" style="edgeLabel;html=1;align=center;verticalAlign=middle;resizable=0;points=[];" parent="Fybl_m38d4EneD0_LPpg-237" vertex="1" connectable="0">
          <mxGeometry x="0.8732" relative="1" as="geometry">
            <mxPoint x="15" as="offset" />
          </mxGeometry>
        </mxCell>
        <mxCell id="Fybl_m38d4EneD0_LPpg-238" value="" style="edgeStyle=entityRelationEdgeStyle;fontSize=12;html=1;endArrow=none;endFill=0;rounded=0;" parent="1" source="GQpUR5S-1D9-paGbvoM8-83" target="Fybl_m38d4EneD0_LPpg-136" edge="1">
          <mxGeometry width="100" height="100" relative="1" as="geometry">
            <mxPoint x="939.53" y="-970" as="sourcePoint" />
            <mxPoint x="1039.53" y="-1070" as="targetPoint" />
          </mxGeometry>
        </mxCell>
        <mxCell id="GQpUR5S-1D9-paGbvoM8-34" value="1,n" style="edgeLabel;html=1;align=center;verticalAlign=middle;resizable=0;points=[];" parent="Fybl_m38d4EneD0_LPpg-238" vertex="1" connectable="0">
          <mxGeometry x="0.6978" y="-2" relative="1" as="geometry">
            <mxPoint as="offset" />
          </mxGeometry>
        </mxCell>
        <mxCell id="Fybl_m38d4EneD0_LPpg-239" value="Topico" style="swimlane;fontStyle=1;align=center;verticalAlign=top;childLayout=stackLayout;horizontal=1;startSize=26;horizontalStack=0;resizeParent=1;resizeParentMax=0;resizeLast=0;collapsible=1;marginBottom=0;whiteSpace=wrap;html=1;rounded=0;" parent="1" vertex="1">
          <mxGeometry x="1010" y="-1490" width="160" height="86" as="geometry" />
        </mxCell>
        <mxCell id="Fybl_m38d4EneD0_LPpg-240" value="id&lt;div&gt;&lt;br&gt;&lt;/div&gt;" style="text;strokeColor=none;fillColor=none;align=left;verticalAlign=top;spacingLeft=4;spacingRight=4;overflow=hidden;rotatable=0;points=[[0,0.5],[1,0.5]];portConstraint=eastwest;whiteSpace=wrap;html=1;rounded=0;" parent="Fybl_m38d4EneD0_LPpg-239" vertex="1">
          <mxGeometry y="26" width="160" height="26" as="geometry" />
        </mxCell>
        <mxCell id="Fybl_m38d4EneD0_LPpg-241" value="" style="line;strokeWidth=1;fillColor=none;align=left;verticalAlign=middle;spacingTop=-1;spacingLeft=3;spacingRight=3;rotatable=0;labelPosition=right;points=[];portConstraint=eastwest;strokeColor=inherit;rounded=0;" parent="Fybl_m38d4EneD0_LPpg-239" vertex="1">
          <mxGeometry y="52" width="160" height="8" as="geometry" />
        </mxCell>
        <mxCell id="Fybl_m38d4EneD0_LPpg-242" value="nome" style="text;strokeColor=none;fillColor=none;align=left;verticalAlign=top;spacingLeft=4;spacingRight=4;overflow=hidden;rotatable=0;points=[[0,0.5],[1,0.5]];portConstraint=eastwest;whiteSpace=wrap;html=1;rounded=0;" parent="Fybl_m38d4EneD0_LPpg-239" vertex="1">
          <mxGeometry y="60" width="160" height="26" as="geometry" />
        </mxCell>
        <mxCell id="Fybl_m38d4EneD0_LPpg-253" value="" style="edgeStyle=entityRelationEdgeStyle;fontSize=12;html=1;endArrow=none;rounded=0;endFill=0;" parent="1" source="GQpUR5S-1D9-paGbvoM8-66" target="Fybl_m38d4EneD0_LPpg-239" edge="1">
          <mxGeometry width="100" height="100" relative="1" as="geometry">
            <mxPoint x="849.53" y="-1270" as="sourcePoint" />
            <mxPoint x="680" y="-1297" as="targetPoint" />
          </mxGeometry>
        </mxCell>
        <mxCell id="GQpUR5S-1D9-paGbvoM8-30" value="n,n" style="edgeLabel;html=1;align=center;verticalAlign=middle;resizable=0;points=[];" parent="Fybl_m38d4EneD0_LPpg-253" vertex="1" connectable="0">
          <mxGeometry x="0.8683" relative="1" as="geometry">
            <mxPoint x="-5" as="offset" />
          </mxGeometry>
        </mxCell>
        <mxCell id="GQpUR5S-1D9-paGbvoM8-13" style="rounded=0;orthogonalLoop=1;jettySize=auto;html=1;entryX=-0.006;entryY=0.621;entryDx=0;entryDy=0;entryPerimeter=0;edgeStyle=entityRelationEdgeStyle;endArrow=none;endFill=0;" parent="1" source="GQpUR5S-1D9-paGbvoM8-65" target="Fybl_m38d4EneD0_LPpg-147" edge="1">
          <mxGeometry relative="1" as="geometry" />
        </mxCell>
        <mxCell id="GQpUR5S-1D9-paGbvoM8-15" value="0,1" style="edgeLabel;html=1;align=center;verticalAlign=middle;resizable=0;points=[];" parent="GQpUR5S-1D9-paGbvoM8-13" vertex="1" connectable="0">
          <mxGeometry x="0.8916" relative="1" as="geometry">
            <mxPoint as="offset" />
          </mxGeometry>
        </mxCell>
        <mxCell id="GQpUR5S-1D9-paGbvoM8-46" value="" style="edgeStyle=entityRelationEdgeStyle;fontSize=12;html=1;endArrow=none;endFill=0;rounded=0;" parent="1" source="Fybl_m38d4EneD0_LPpg-119" target="GQpUR5S-1D9-paGbvoM8-49" edge="1">
          <mxGeometry width="100" height="100" relative="1" as="geometry">
            <mxPoint x="250" y="-1140" as="sourcePoint" />
            <mxPoint x="640" y="-1136" as="targetPoint" />
          </mxGeometry>
        </mxCell>
        <mxCell id="GQpUR5S-1D9-paGbvoM8-47" value="1,1" style="edgeLabel;html=1;align=center;verticalAlign=middle;resizable=0;points=[];" parent="GQpUR5S-1D9-paGbvoM8-46" vertex="1" connectable="0">
          <mxGeometry x="-0.8001" y="1" relative="1" as="geometry">
            <mxPoint x="10" as="offset" />
          </mxGeometry>
        </mxCell>
        <mxCell id="GQpUR5S-1D9-paGbvoM8-49" value="Possui" style="shape=rhombus;perimeter=rhombusPerimeter;whiteSpace=wrap;html=1;align=center;" parent="1" vertex="1">
          <mxGeometry x="420" y="-1320" width="120" height="60" as="geometry" />
        </mxCell>
        <mxCell id="GQpUR5S-1D9-paGbvoM8-50" value="" style="edgeStyle=entityRelationEdgeStyle;fontSize=12;html=1;endArrow=none;endFill=0;rounded=0;" parent="1" source="Fybl_m38d4EneD0_LPpg-114" target="GQpUR5S-1D9-paGbvoM8-53" edge="1">
          <mxGeometry width="100" height="100" relative="1" as="geometry">
            <mxPoint x="640" y="-1084" as="sourcePoint" />
            <mxPoint x="250" y="-961" as="targetPoint" />
            <Array as="points">
              <mxPoint x="330" y="-960" />
            </Array>
          </mxGeometry>
        </mxCell>
        <mxCell id="GQpUR5S-1D9-paGbvoM8-51" value="1,1" style="edgeLabel;html=1;align=center;verticalAlign=middle;resizable=0;points=[];" parent="GQpUR5S-1D9-paGbvoM8-50" vertex="1" connectable="0">
          <mxGeometry x="-0.8137" relative="1" as="geometry">
            <mxPoint as="offset" />
          </mxGeometry>
        </mxCell>
        <mxCell id="GQpUR5S-1D9-paGbvoM8-53" value="Tem" style="shape=rhombus;perimeter=rhombusPerimeter;whiteSpace=wrap;html=1;align=center;" parent="1" vertex="1">
          <mxGeometry x="425" y="-1188" width="120" height="60" as="geometry" />
        </mxCell>
        <mxCell id="GQpUR5S-1D9-paGbvoM8-54" value="" style="edgeStyle=entityRelationEdgeStyle;fontSize=12;html=1;endArrow=none;rounded=0;endFill=0;entryX=0.5;entryY=0;entryDx=0;entryDy=0;" parent="1" source="GQpUR5S-1D9-paGbvoM8-39" target="GQpUR5S-1D9-paGbvoM8-57" edge="1">
          <mxGeometry width="100" height="100" relative="1" as="geometry">
            <mxPoint x="250" y="-927" as="sourcePoint" />
            <mxPoint x="250" y="-771" as="targetPoint" />
          </mxGeometry>
        </mxCell>
        <mxCell id="GQpUR5S-1D9-paGbvoM8-55" value="1,1" style="edgeLabel;html=1;align=center;verticalAlign=middle;resizable=0;points=[];" parent="GQpUR5S-1D9-paGbvoM8-54" vertex="1" connectable="0">
          <mxGeometry x="-0.8547" y="-1" relative="1" as="geometry">
            <mxPoint as="offset" />
          </mxGeometry>
        </mxCell>
        <mxCell id="GQpUR5S-1D9-paGbvoM8-57" value="Contem" style="shape=rhombus;perimeter=rhombusPerimeter;whiteSpace=wrap;html=1;align=center;" parent="1" vertex="1">
          <mxGeometry x="425" y="-1110" width="120" height="60" as="geometry" />
        </mxCell>
        <mxCell id="GQpUR5S-1D9-paGbvoM8-58" value="" style="edgeStyle=entityRelationEdgeStyle;fontSize=12;html=1;endArrow=none;endFill=0;rounded=0;entryX=-0.018;entryY=0.54;entryDx=0;entryDy=0;entryPerimeter=0;" parent="1" source="Fybl_m38d4EneD0_LPpg-177" target="GQpUR5S-1D9-paGbvoM8-61" edge="1">
          <mxGeometry width="100" height="100" relative="1" as="geometry">
            <mxPoint x="270" y="-820" as="sourcePoint" />
            <mxPoint x="917" y="-1016" as="targetPoint" />
          </mxGeometry>
        </mxCell>
        <mxCell id="GQpUR5S-1D9-paGbvoM8-59" value="0,n" style="edgeLabel;html=1;align=center;verticalAlign=middle;resizable=0;points=[];" parent="GQpUR5S-1D9-paGbvoM8-58" vertex="1" connectable="0">
          <mxGeometry x="-0.8864" y="1" relative="1" as="geometry">
            <mxPoint as="offset" />
          </mxGeometry>
        </mxCell>
        <mxCell id="GQpUR5S-1D9-paGbvoM8-61" value="Da" style="shape=rhombus;perimeter=rhombusPerimeter;whiteSpace=wrap;html=1;align=center;" parent="1" vertex="1">
          <mxGeometry x="640" y="-1089" width="120" height="60" as="geometry" />
        </mxCell>
        <mxCell id="GQpUR5S-1D9-paGbvoM8-62" value="" style="rounded=0;orthogonalLoop=1;jettySize=auto;html=1;entryX=-0.006;entryY=0.621;entryDx=0;entryDy=0;entryPerimeter=0;edgeStyle=entityRelationEdgeStyle;endArrow=none;endFill=0;" parent="1" source="Fybl_m38d4EneD0_LPpg-180" target="GQpUR5S-1D9-paGbvoM8-65" edge="1">
          <mxGeometry relative="1" as="geometry">
            <mxPoint x="250" y="-719" as="sourcePoint" />
            <mxPoint x="919" y="-808" as="targetPoint" />
          </mxGeometry>
        </mxCell>
        <mxCell id="GQpUR5S-1D9-paGbvoM8-63" value="0,n" style="edgeLabel;html=1;align=center;verticalAlign=middle;resizable=0;points=[];" parent="GQpUR5S-1D9-paGbvoM8-62" vertex="1" connectable="0">
          <mxGeometry x="-0.9174" relative="1" as="geometry">
            <mxPoint x="4" as="offset" />
          </mxGeometry>
        </mxCell>
        <mxCell id="GQpUR5S-1D9-paGbvoM8-65" value="Seleciona" style="shape=rhombus;perimeter=rhombusPerimeter;whiteSpace=wrap;html=1;align=center;" parent="1" vertex="1">
          <mxGeometry x="640" y="-1000" width="120" height="60" as="geometry" />
        </mxCell>
        <mxCell id="GQpUR5S-1D9-paGbvoM8-67" value="" style="edgeStyle=entityRelationEdgeStyle;fontSize=12;html=1;endArrow=none;rounded=0;endFill=0;entryX=0.5;entryY=1;entryDx=0;entryDy=0;" parent="1" source="Fybl_m38d4EneD0_LPpg-109" target="GQpUR5S-1D9-paGbvoM8-66" edge="1">
          <mxGeometry width="100" height="100" relative="1" as="geometry">
            <mxPoint x="640" y="-1101" as="sourcePoint" />
            <mxPoint x="250" y="-1301" as="targetPoint" />
            <Array as="points">
              <mxPoint x="910" y="-1310" />
              <mxPoint x="880" y="-1310" />
              <mxPoint x="910" y="-1320" />
            </Array>
          </mxGeometry>
        </mxCell>
        <mxCell id="GQpUR5S-1D9-paGbvoM8-68" value="n,n" style="edgeLabel;html=1;align=center;verticalAlign=middle;resizable=0;points=[];" parent="GQpUR5S-1D9-paGbvoM8-67" vertex="1" connectable="0">
          <mxGeometry x="-0.882" y="1" relative="1" as="geometry">
            <mxPoint x="1" as="offset" />
          </mxGeometry>
        </mxCell>
        <mxCell id="GQpUR5S-1D9-paGbvoM8-66" value="Tem&lt;blockquote style=&quot;margin: 0 0 0 40px; border: none; padding: 0px;&quot;&gt;&lt;/blockquote&gt;" style="shape=associativeEntity;whiteSpace=wrap;html=1;align=center;" parent="1" vertex="1">
          <mxGeometry x="810" y="-1419" width="140" height="60" as="geometry" />
        </mxCell>
        <mxCell id="GQpUR5S-1D9-paGbvoM8-72" value="" style="edgeStyle=entityRelationEdgeStyle;fontSize=12;html=1;endArrow=none;startArrow=none;rounded=0;endFill=0;startFill=0;" parent="1" source="Fybl_m38d4EneD0_LPpg-136" target="GQpUR5S-1D9-paGbvoM8-75" edge="1">
          <mxGeometry width="100" height="100" relative="1" as="geometry">
            <mxPoint x="1080" y="-1051" as="sourcePoint" />
            <mxPoint x="1080" y="-1166" as="targetPoint" />
            <Array as="points">
              <mxPoint x="880" y="-1050" />
              <mxPoint x="890" y="-820" />
            </Array>
          </mxGeometry>
        </mxCell>
        <mxCell id="GQpUR5S-1D9-paGbvoM8-74" value="1,n" style="edgeLabel;html=1;align=center;verticalAlign=middle;resizable=0;points=[];" parent="GQpUR5S-1D9-paGbvoM8-72" vertex="1" connectable="0">
          <mxGeometry x="-0.821" y="-1" relative="1" as="geometry">
            <mxPoint as="offset" />
          </mxGeometry>
        </mxCell>
        <mxCell id="GQpUR5S-1D9-paGbvoM8-75" value="Tem" style="shape=rhombus;perimeter=rhombusPerimeter;whiteSpace=wrap;html=1;align=center;" parent="1" vertex="1">
          <mxGeometry x="1230" y="-1320" width="120" height="60" as="geometry" />
        </mxCell>
        <mxCell id="GQpUR5S-1D9-paGbvoM8-77" value="" style="edgeStyle=entityRelationEdgeStyle;fontSize=12;html=1;endArrow=none;endFill=0;rounded=0;" parent="1" source="Fybl_m38d4EneD0_LPpg-140" target="GQpUR5S-1D9-paGbvoM8-76" edge="1">
          <mxGeometry width="100" height="100" relative="1" as="geometry">
            <mxPoint x="1080" y="-991" as="sourcePoint" />
            <mxPoint x="1080" y="-751" as="targetPoint" />
            <Array as="points">
              <mxPoint x="580" y="-743" />
              <mxPoint x="880" y="-900" />
            </Array>
          </mxGeometry>
        </mxCell>
        <mxCell id="GQpUR5S-1D9-paGbvoM8-78" value="1,1" style="edgeLabel;html=1;align=center;verticalAlign=middle;resizable=0;points=[];" parent="GQpUR5S-1D9-paGbvoM8-77" vertex="1" connectable="0">
          <mxGeometry x="-0.8189" relative="1" as="geometry">
            <mxPoint as="offset" />
          </mxGeometry>
        </mxCell>
        <mxCell id="GQpUR5S-1D9-paGbvoM8-76" value="Contem" style="shape=rhombus;perimeter=rhombusPerimeter;whiteSpace=wrap;html=1;align=center;" parent="1" vertex="1">
          <mxGeometry x="1230" y="-1040" width="120" height="60" as="geometry" />
        </mxCell>
        <mxCell id="GQpUR5S-1D9-paGbvoM8-80" value="" style="edgeStyle=entityRelationEdgeStyle;fontSize=12;html=1;endArrow=none;endFill=0;rounded=0;" parent="1" source="Fybl_m38d4EneD0_LPpg-114" target="GQpUR5S-1D9-paGbvoM8-83" edge="1">
          <mxGeometry width="100" height="100" relative="1" as="geometry">
            <mxPoint x="770" y="-1188" as="sourcePoint" />
            <mxPoint x="920" y="-1051" as="targetPoint" />
          </mxGeometry>
        </mxCell>
        <mxCell id="GQpUR5S-1D9-paGbvoM8-81" value="1,1" style="edgeLabel;html=1;align=center;verticalAlign=middle;resizable=0;points=[];" parent="GQpUR5S-1D9-paGbvoM8-80" vertex="1" connectable="0">
          <mxGeometry x="-0.7225" y="1" relative="1" as="geometry">
            <mxPoint x="2" as="offset" />
          </mxGeometry>
        </mxCell>
        <mxCell id="GQpUR5S-1D9-paGbvoM8-83" value="Contem" style="shape=rhombus;perimeter=rhombusPerimeter;whiteSpace=wrap;html=1;align=center;" parent="1" vertex="1">
          <mxGeometry x="830" y="-1218" width="120" height="60" as="geometry" />
        </mxCell>
      </root>
    </mxGraphModel>
  </diagram>
</mxfile>
